<svg width="20" height="29" viewBox="0 0 20 29" fill="none" xmlns="http://www.w3.org/2000/svg">
<path d="M18 28.4521H2C1.46973 28.4516 0.961329 28.2407 0.586371 27.8658C0.211413 27.4908 0.000529477 26.9824 0 26.4521V2.45215C0.000529477 1.92188 0.211413 1.41348 0.586371 1.03852C0.961329 0.663562 1.46973 0.452678 2 0.452148H18C18.5303 0.452678 19.0387 0.663562 19.4136 1.03852C19.7886 1.41348 19.9995 1.92188 20 2.45215V19.0701L15 16.5701L10 19.0701V2.45215H2V26.4521H18V22.4521H20V26.4521C19.9992 26.9823 19.7882 27.4906 19.4133 27.8655C19.0384 28.2404 18.5302 28.4514 18 28.4521ZM15 14.3341L18 15.8341V2.45215H12V15.8341L15 14.3341Z" fill="white" fill-opacity="0.7"/>
</svg>
