<svg width="24" height="20" viewBox="0 0 24 20" fill="none" xmlns="http://www.w3.org/2000/svg">
<path d="M12 2.53144C13.4276 1.583 15.366 1 17.5 1C19.6352 1 21.5724 1.583 23 2.53144V18.4203C21.5724 17.4719 19.6352 16.8889 17.5 16.8889C15.366 16.8889 13.4276 17.4719 12 18.4203M12 2.53144V18.4203V2.53144ZM12 2.53144C10.5724 1.583 8.634 1 6.5 1C4.366 1 2.42756 1.583 1 2.53144V18.4203C2.42756 17.4719 4.366 16.8889 6.5 16.8889C8.634 16.8889 10.5724 17.4719 12 18.4203V2.53144Z" stroke="white" stroke-width="2" stroke-linecap="round" stroke-linejoin="round"/>
</svg>
