<svg width="27" height="27" viewBox="0 0 27 27" fill="none" xmlns="http://www.w3.org/2000/svg">
<path d="M22.3992 22.6071H4.04364C3.86883 22.6172 3.69385 22.5902 3.53021 22.5279C3.36656 22.4656 3.21795 22.3694 3.09413 22.2456C2.97031 22.1217 2.87408 21.9731 2.81176 21.8095C2.74944 21.6458 2.72244 21.4709 2.73253 21.296V10.8071C2.72132 10.4195 2.86253 10.0429 3.12587 9.75826L12.3036 1.89159C12.5468 1.70084 12.8468 1.59717 13.1559 1.59717C13.4649 1.59717 13.765 1.70084 14.0081 1.89159L23.1859 9.75826C23.3571 9.87221 23.4956 10.029 23.5876 10.2129C23.6796 10.3969 23.7219 10.6018 23.7103 10.8071V21.296C23.7204 21.4709 23.6934 21.6458 23.6311 21.8095C23.5688 21.9731 23.4725 22.1217 23.3487 22.2456C23.2249 22.3694 23.0763 22.4656 22.9126 22.5279C22.749 22.5902 22.574 22.6172 22.3992 22.6071ZM13.2214 14.7405C13.3962 14.7304 13.5712 14.7574 13.7349 14.8197C13.8985 14.882 14.0471 14.9783 14.1709 15.1021C14.2948 15.2259 14.391 15.3745 14.4533 15.5382C14.5156 15.7018 14.5426 15.8768 14.5325 16.0516V19.9849H21.0881V11.4627L13.2214 4.77604L5.35475 11.4627V19.9849H11.9103V16.0516C11.9002 15.8768 11.9272 15.7018 11.9895 15.5382C12.0519 15.3745 12.1481 15.2259 12.2719 15.1021C12.3957 14.9783 12.5443 14.882 12.708 14.8197C12.8716 14.7574 13.0466 14.7304 13.2214 14.7405Z" fill="white" fill-opacity="0.7"/>
</svg>
