<svg width="27" height="27" viewBox="0 0 27 27" fill="none" xmlns="http://www.w3.org/2000/svg">
<g opacity="0.7">
<path d="M5.35542 22.7631C5.1805 22.7737 5.00534 22.747 4.84151 22.6848C4.67767 22.6226 4.52888 22.5264 4.40497 22.4025C4.28106 22.2786 4.18485 22.1298 4.12268 21.966C4.06051 21.8021 4.0338 21.627 4.04431 21.452V5.7187C4.03358 5.54373 4.06015 5.36848 4.12224 5.20455C4.18434 5.04061 4.28055 4.89174 4.4045 4.76778C4.52846 4.64383 4.67733 4.54762 4.84126 4.48552C5.0052 4.42343 5.18045 4.39687 5.35542 4.40759H10.5999C10.7748 4.39708 10.9499 4.42379 11.1138 4.48596C11.2776 4.54813 11.4264 4.64435 11.5503 4.76826C11.6742 4.89217 11.7704 5.04095 11.8326 5.20479C11.8948 5.36862 11.9215 5.54378 11.911 5.7187C11.9215 5.89362 11.8948 6.06878 11.8326 6.23262C11.7704 6.39646 11.6742 6.54524 11.5503 6.66915C11.4264 6.79306 11.2776 6.88928 11.1138 6.95145C10.9499 7.01362 10.7748 7.04033 10.5999 7.02982H6.66653V20.1409H10.5999C10.9476 20.1409 11.2811 20.2791 11.527 20.5249C11.7728 20.7708 11.911 21.1043 11.911 21.452C11.911 21.7998 11.7728 22.1333 11.527 22.3791C11.2811 22.625 10.9476 22.7631 10.5999 22.7631H5.35542ZM17.5488 19.7476C17.4247 19.6291 17.3259 19.4867 17.2585 19.3289C17.191 19.1712 17.1562 19.0014 17.1562 18.8298C17.1562 18.6582 17.191 18.4885 17.2585 18.3307C17.3259 18.173 17.4247 18.0305 17.5488 17.912L20.5643 14.8965H10.5999C10.4249 14.907 10.2498 14.8803 10.086 14.8181C9.92211 14.7559 9.77333 14.6597 9.64942 14.5358C9.52551 14.4119 9.42929 14.2631 9.36712 14.0993C9.30495 13.9355 9.27824 13.7603 9.28876 13.5854C9.27824 13.4105 9.30495 13.2353 9.36712 13.0715C9.42929 12.9076 9.52551 12.7588 9.64942 12.6349C9.77333 12.511 9.92211 12.4148 10.086 12.3526C10.2498 12.2905 10.4249 12.2637 10.5999 12.2743H20.5643L17.5488 9.2587C17.4245 9.1403 17.3256 8.9979 17.258 8.84014C17.1905 8.68239 17.1556 8.51255 17.1556 8.34093C17.1556 8.1693 17.1905 7.99947 17.258 7.84171C17.3256 7.68395 17.4245 7.54155 17.5488 7.42315C17.6671 7.29874 17.8094 7.19969 17.9672 7.13201C18.125 7.06432 18.2949 7.02942 18.4665 7.02942C18.6382 7.02942 18.8081 7.06432 18.9659 7.13201C19.1236 7.19969 19.266 7.29874 19.3843 7.42315L24.6288 12.6676C24.7599 12.7987 24.7599 12.9298 24.891 13.0609C25.0226 13.3982 25.0226 13.7726 24.891 14.1098C24.891 14.2409 24.7599 14.372 24.6288 14.5031L19.3843 19.7476C19.2658 19.8717 19.1234 19.9704 18.9656 20.0379C18.8079 20.1054 18.6381 20.1401 18.4665 20.1401C18.295 20.1401 18.1252 20.1054 17.9674 20.0379C17.8097 19.9704 17.6673 19.8717 17.5488 19.7476Z" fill="white"/>
</g>
</svg>
