<svg width="27" height="28" viewBox="0 0 27 28" fill="none" xmlns="http://www.w3.org/2000/svg">
<path d="M15.8445 24.4967V21.8745H5.35562C4.66016 21.8745 3.99319 21.5983 3.50143 21.1065C3.00967 20.6147 2.7334 19.9478 2.7334 19.2523V7.4523C2.7334 6.75684 3.00967 6.08987 3.50143 5.59811C3.99319 5.10635 4.66016 4.83008 5.35562 4.83008H21.089C21.7844 4.83008 22.4514 5.10635 22.9431 5.59811C23.4349 6.08987 23.7112 6.75684 23.7112 7.4523V19.2523C23.7112 19.9478 23.4349 20.6147 22.9431 21.1065C22.4514 21.5983 21.7844 21.8745 21.089 21.8745H18.4667V24.4967C18.477 24.6716 18.4502 24.8467 18.3879 25.0104C18.3257 25.1742 18.2295 25.3229 18.1056 25.4467C17.9817 25.5706 17.833 25.6668 17.6693 25.7291C17.5056 25.7913 17.3305 25.8182 17.1556 25.8079C16.9808 25.8182 16.8057 25.7913 16.6419 25.7291C16.4782 25.6668 16.3295 25.5706 16.2056 25.4467C16.0818 25.3229 15.9856 25.1742 15.9233 25.0104C15.8611 24.8467 15.8342 24.6716 15.8445 24.4967ZM5.35562 19.2523H21.089V7.4523H5.35562V19.2523ZM9.28895 16.6301C9.11403 16.6406 8.93887 16.6139 8.77504 16.5517C8.6112 16.4895 8.46242 16.3933 8.3385 16.2694C8.21459 16.1455 8.11838 15.9967 8.05621 15.8329C7.99404 15.669 7.96733 15.4939 7.97784 15.319C7.96733 15.144 7.99404 14.9689 8.05621 14.805C8.11838 14.6412 8.21459 14.4924 8.3385 14.3685C8.46242 14.2446 8.6112 14.1484 8.77504 14.0862C8.93887 14.0241 9.11403 13.9973 9.28895 14.0079H17.1556C17.3306 13.9971 17.5058 14.0237 17.6698 14.0858C17.8337 14.1479 17.9826 14.2441 18.1065 14.368C18.2305 14.492 18.3267 14.6409 18.3888 14.8048C18.4509 14.9687 18.4775 15.144 18.4667 15.319C18.4775 15.4939 18.4509 15.6692 18.3888 15.8331C18.3267 15.9971 18.2305 16.1459 18.1065 16.2699C17.9826 16.3938 17.8337 16.4901 17.6698 16.5521C17.5058 16.6142 17.3306 16.6408 17.1556 16.6301H9.28895ZM9.28895 12.6967C9.11403 12.7073 8.93887 12.6805 8.77504 12.6184C8.6112 12.5562 8.46242 12.46 8.3385 12.3361C8.21459 12.2122 8.11838 12.0634 8.05621 11.8996C7.99404 11.7357 7.96733 11.5606 7.97784 11.3856C7.96754 11.2108 7.9944 11.0357 8.05664 10.872C8.11889 10.7082 8.21511 10.5595 8.33897 10.4357C8.46284 10.3118 8.61154 10.2156 8.77528 10.1533C8.93902 10.0911 9.11409 10.0642 9.28895 10.0745H13.2223C13.3972 10.064 13.5724 10.0907 13.7362 10.1529C13.9 10.2151 14.0488 10.3113 14.1727 10.4352C14.2966 10.5591 14.3929 10.7079 14.455 10.8717C14.5172 11.0356 14.5439 11.2107 14.5334 11.3856C14.5439 11.5606 14.5172 11.7357 14.455 11.8996C14.3929 12.0634 14.2966 12.2122 14.1727 12.3361C14.0488 12.46 13.9 12.5562 13.7362 12.6184C13.5724 12.6805 13.3972 12.7073 13.2223 12.6967H9.28895Z" fill="white" fill-opacity="0.7"/>
</svg>
