<svg width="27" height="27" viewBox="0 0 27 27" fill="none" xmlns="http://www.w3.org/2000/svg">
<path d="M13.1108 24.9113C12.3351 24.8971 11.5615 24.8243 10.7967 24.6936H10.7744L10.4886 24.649C10.1757 24.564 9.90116 24.3747 9.71043 24.1125C9.5197 23.8502 9.4242 23.5307 9.43973 23.2068L9.57084 21.6335L8.52195 21.109L7.47306 22.289C7.189 22.5146 6.84039 22.6437 6.47793 22.6575C6.22218 22.6588 5.97319 22.5754 5.76993 22.4202C4.40207 21.3125 3.28487 19.9272 2.49215 18.3557C2.35352 18.0693 2.31694 17.7442 2.38848 17.4342C2.46002 17.1242 2.63538 16.8479 2.88548 16.6513L4.19659 15.7335L3.93306 14.6859L2.49084 14.4237C2.17353 14.3738 1.88304 14.2163 1.66816 13.9775C1.45329 13.7388 1.32711 13.4334 1.31084 13.1126C1.29812 11.3392 1.70232 9.5877 2.49084 7.99924C2.56946 7.77774 2.71481 7.58605 2.90687 7.45057C3.09894 7.31509 3.32828 7.24248 3.56333 7.24273C3.73519 7.24411 3.9052 7.27838 4.06417 7.34369L5.63751 7.86813L6.29306 6.95035L5.50639 5.50813C5.4149 5.39104 5.34867 5.25626 5.31188 5.11228C5.2751 4.96831 5.26856 4.81827 5.29268 4.67164C5.3517 4.37403 5.52188 4.11007 5.76862 3.93349C7.15959 2.85386 8.77098 2.09337 10.4886 1.70591C10.5749 1.68839 10.6628 1.6796 10.7508 1.67969C11.0219 1.68583 11.2864 1.76431 11.5169 1.907C11.7474 2.04969 11.9356 2.25141 12.0619 2.49127L12.5864 3.93349H13.7664L14.2908 2.49127C14.4386 2.21186 14.667 1.98343 14.9464 1.83571C14.9717 1.83513 14.9966 1.82896 15.0193 1.81762C15.042 1.80629 15.0618 1.79008 15.0775 1.77015C15.0931 1.75016 15.113 1.7339 15.1357 1.72256C15.1583 1.71122 15.1833 1.70508 15.2086 1.7046H15.8642C17.5716 2.12203 19.177 2.88017 20.5842 3.93349C20.841 4.12768 21.012 4.4143 21.061 4.73253C21.1099 5.05075 21.033 5.37553 20.8464 5.63793L20.0597 7.08015L20.7153 7.86682L22.1575 7.34238C22.2929 7.28747 22.4375 7.25899 22.5836 7.25847C22.8237 7.26618 23.0572 7.33908 23.2591 7.46934C23.4609 7.5996 23.6236 7.78232 23.7295 7.99793C24.518 9.58639 24.9222 11.3379 24.9095 13.1113C24.9095 13.459 24.7714 13.7925 24.5255 14.0384C24.2796 14.2842 23.9461 14.4224 23.5984 14.4224H23.4673L22.1562 14.5535L21.894 15.7335L23.2051 16.6513C23.4793 16.8285 23.6738 17.1056 23.7472 17.4238C23.8207 17.7419 23.7673 18.0762 23.5984 18.3557C22.8474 19.9537 21.7232 21.3477 20.3206 22.4202C20.08 22.6008 19.7877 22.6992 19.4868 22.7007C19.3193 22.7066 19.1529 22.6723 19.0014 22.6007C18.85 22.5291 18.7179 22.4222 18.6162 22.289L17.4362 21.109L16.3873 21.6335L16.5184 23.2068C16.5339 23.5307 16.4384 23.8502 16.2477 24.1125C16.057 24.3747 15.7825 24.564 15.4695 24.649C14.6941 24.8157 13.9039 24.9035 13.1108 24.9113ZM8.69764 18.3819C9.00496 18.3795 9.30704 18.4616 9.57084 18.6192L11.4064 19.537L11.5375 19.6681C11.8223 19.882 12.0535 20.1592 12.2128 20.4777C12.3721 20.7963 12.4551 21.1475 12.4553 21.5037L12.1931 22.2904H14.0286L13.8975 21.5037V21.2415C13.9038 20.8895 14.0044 20.5457 14.1889 20.2458C14.3734 19.946 14.635 19.7012 14.9464 19.537L16.782 18.6192C16.8525 18.5478 16.9447 18.5017 17.0442 18.4881C17.247 18.4196 17.4595 18.3842 17.6735 18.3832C18.1627 18.3959 18.6337 18.5712 19.0122 18.8815L19.6677 19.537C20.0923 19.0827 20.4865 18.6009 20.8477 18.0948L20.1922 17.5704L20.061 17.4392C19.8048 17.1861 19.6119 16.876 19.498 16.5343C19.3841 16.1926 19.3524 15.8288 19.4055 15.4726L19.9299 13.5059C19.9402 13.4054 19.9868 13.3122 20.061 13.2437C20.1805 12.9035 20.3898 12.6019 20.6668 12.3711C20.9438 12.1402 21.2782 11.9887 21.6344 11.9326L22.421 11.8015C22.3555 11.5392 22.2899 11.2403 22.2244 10.9492C22.1588 10.6582 22.0933 10.3592 22.0277 10.097L21.1099 10.4904H20.8477C20.7177 10.512 20.5862 10.523 20.4544 10.5231C20.159 10.5212 19.8672 10.459 19.5966 10.3404C19.3261 10.2218 19.0826 10.0494 18.881 9.83349L17.5699 8.26015L17.4388 8.12904C17.2438 7.81395 17.1405 7.45072 17.1405 7.08015C17.1405 6.70959 17.2438 6.34636 17.4388 6.03127L17.8321 5.2446L16.6522 4.6546L16.2588 4.45793L15.9966 5.2446C15.9966 5.27937 15.9828 5.31272 15.9582 5.33731C15.9336 5.3619 15.9003 5.37571 15.8655 5.37571C15.7212 5.71287 15.4847 6.00248 15.1832 6.21122C14.8817 6.41996 14.5274 6.53937 14.161 6.55571H11.7997C11.4445 6.49706 11.1114 6.34461 10.8348 6.11412C10.5582 5.88362 10.3481 5.58344 10.2264 5.2446L9.96417 4.45793C9.78979 4.54447 9.59837 4.63362 9.4135 4.72015C9.0607 4.87069 8.71896 5.04594 8.39084 5.2446L8.78417 6.03127C8.85569 6.10175 8.90181 6.19398 8.91528 6.29349C9.03806 6.61734 9.07838 6.96664 9.03261 7.30995C8.98683 7.65325 8.8564 7.97979 8.65306 8.26015L7.34195 9.83349L7.21084 9.9646C6.77966 10.3411 6.23523 10.563 5.66373 10.5952C5.47533 10.5966 5.28841 10.5619 5.11306 10.493L4.4575 10.2308C4.20344 10.7633 4.06918 11.3451 4.06417 11.9352L4.85084 12.0663H5.11306C5.46019 12.1554 5.77708 12.336 6.03073 12.5892C6.28438 12.8424 6.46552 13.1589 6.55528 13.5059L7.07973 15.4726V15.7348C7.10937 16.0954 7.03947 16.4573 6.87764 16.781C6.71581 17.1046 6.46825 17.3777 6.16195 17.5704L5.50639 18.0948C5.81743 18.6374 6.21615 19.1247 6.68639 19.537L7.34195 18.8815L7.47306 18.7504C7.84065 18.5196 8.26373 18.3923 8.69764 18.3819ZM13.1108 17.0459C12.5911 17.0577 12.0743 16.9641 11.5917 16.7706C11.1092 16.5771 10.6708 16.2878 10.3032 15.9202C9.93558 15.5526 9.64629 15.1142 9.45281 14.6317C9.25933 14.1491 9.16568 13.6323 9.17751 13.1126C9.16568 12.5928 9.25933 12.076 9.45281 11.5935C9.64629 11.1109 9.93558 10.6726 10.3032 10.3049C10.6708 9.93732 11.1092 9.64803 11.5917 9.45455C12.0743 9.26107 12.5911 9.16741 13.1108 9.17924C13.6306 9.16741 14.1474 9.26107 14.6299 9.45455C15.1125 9.64803 15.5508 9.93732 15.9185 10.3049C16.2861 10.6726 16.5754 11.1109 16.7689 11.5935C16.9623 12.076 17.056 12.5928 17.0442 13.1126C17.056 13.6323 16.9623 14.1491 16.7689 14.6317C16.5754 15.1142 16.2861 15.5526 15.9185 15.9202C15.5508 16.2878 15.1125 16.5771 14.6299 16.7706C14.1474 16.9641 13.6306 17.0577 13.1108 17.0459ZM13.1108 11.8015C12.936 11.7914 12.761 11.8184 12.5974 11.8807C12.4338 11.943 12.2851 12.0392 12.1613 12.1631C12.0375 12.2869 11.9413 12.4355 11.879 12.5991C11.8166 12.7628 11.7896 12.9378 11.7997 13.1126C11.7896 13.2874 11.8166 13.4624 11.879 13.626C11.9413 13.7897 12.0375 13.9383 12.1613 14.0621C12.2851 14.1859 12.4338 14.2821 12.5974 14.3445C12.761 14.4068 12.936 14.4338 13.1108 14.4237C13.2857 14.4338 13.4606 14.4068 13.6243 14.3445C13.7879 14.2821 13.9365 14.1859 14.0604 14.0621C14.1842 13.9383 14.2804 13.7897 14.3427 13.626C14.405 13.4624 14.432 13.2874 14.422 13.1126C14.4322 12.9377 14.4054 12.7625 14.3431 12.5987C14.2809 12.4349 14.1847 12.2862 14.0609 12.1622C13.937 12.0382 13.7883 11.9419 13.6246 11.8795C13.4609 11.8171 13.2858 11.79 13.1108 11.8002V11.8015Z" fill="white" fill-opacity="0.7"/>
</svg>
