<svg width="22" height="21" viewBox="0 0 22 21" fill="none" xmlns="http://www.w3.org/2000/svg">
<path d="M3.97222 0.452148H18.0278C19.0424 0.452081 20.0186 0.849091 20.7561 1.56174C21.4936 2.27438 21.9364 3.24864 21.9939 4.28465L22 4.51465V16.3896C22.0001 17.4273 21.6119 18.4257 20.9151 19.1799C20.2183 19.9342 19.2657 20.3872 18.2527 20.4459L18.0278 20.4521H3.97222C2.95761 20.4522 1.98143 20.0552 1.24394 19.3426C0.506449 18.6299 0.0635539 17.6557 0.00611126 16.6196L8.52522e-09 16.3896V4.51465C-6.64238e-05 3.47698 0.388122 2.47861 1.08493 1.72436C1.78174 0.970107 2.73435 0.517147 3.74733 0.458399L3.97222 0.452148H18.0278H3.97222ZM18.0278 2.32715H3.97222C3.43543 2.32717 2.91828 2.53361 2.52341 2.9055C2.12854 3.27738 1.88484 3.78752 1.84067 4.33465L1.83333 4.51465V16.3896C1.83335 16.9386 2.03521 17.4675 2.39883 17.8714C2.76245 18.2752 3.26125 18.5245 3.79622 18.5696L3.97222 18.5771H18.0278C18.5648 18.5771 19.0821 18.3705 19.477 17.9983C19.8719 17.6262 20.1155 17.1157 20.1593 16.5684L20.1667 16.3896V4.51465C20.1666 3.96546 19.9646 3.43639 19.6007 3.03251C19.2368 2.62864 18.7377 2.37952 18.2026 2.33465L18.0278 2.32715ZM8.62033 7.4334C8.68441 7.30263 8.7913 7.19899 8.92239 7.14051C9.05348 7.08204 9.20048 7.07245 9.33778 7.1134L9.44044 7.15465L14.7962 9.89215C14.8896 9.93978 14.9694 10.011 15.0282 10.0992C15.087 10.1873 15.1228 10.2894 15.1321 10.3956C15.1414 10.5019 15.124 10.6088 15.0814 10.7062C15.0389 10.8036 14.9727 10.8883 14.8891 10.9521L14.7962 11.0109L9.44044 13.7496C9.35563 13.7932 9.26208 13.8159 9.16719 13.816C9.07231 13.8161 8.9787 13.7936 8.89379 13.7503C8.80888 13.707 8.73499 13.6441 8.67798 13.5665C8.62097 13.4889 8.5824 13.3989 8.56533 13.3034L8.55556 13.1896V7.7134C8.55556 7.61618 8.57774 7.52031 8.62033 7.4334Z" fill="white" fill-opacity="0.7"/>
</svg>
