<svg width="36" height="14" viewBox="0 0 36 14" fill="none" xmlns="http://www.w3.org/2000/svg">
<path d="M4.78309 13.5504L1.26995 10.0373C1.01829 9.78583 0.871368 9.44831 0.85883 9.09279C0.846291 8.73728 0.969068 8.39025 1.20239 8.12171C1.60675 7.65773 1.94555 7.28715 2.21977 7.01293C10.9996 -1.76695 25.233 -1.76695 34.0129 7.01293C34.2871 7.28714 34.6269 7.65674 35.0303 8.12171C35.2636 8.39025 35.3864 8.73728 35.3739 9.09279C35.3613 9.4483 35.2144 9.78582 34.9627 10.0373L31.4496 13.5504C31.3265 13.6738 31.1619 13.747 30.9879 13.7558C30.8138 13.7646 30.6427 13.7084 30.5077 13.5981C30.2564 13.3924 30.0537 13.2315 29.8957 13.1132C28.3203 11.9327 26.5755 10.9972 24.7204 10.3383C24.4273 10.234 24.2514 9.93492 24.3031 9.62891L24.9151 5.95282C20.5496 4.20917 15.6811 4.20917 11.3156 5.95283L11.9256 9.62295C11.9505 9.77292 11.922 9.92687 11.845 10.058C11.768 10.1891 11.6475 10.289 11.5044 10.3403C9.65054 11.0001 7.90707 11.9364 6.33301 13.1172C6.17503 13.2354 5.97136 13.3954 5.72298 13.6001C5.58798 13.71 5.417 13.7658 5.24317 13.7568C5.06933 13.7478 4.90503 13.6746 4.7821 13.5514L4.78309 13.5504Z" fill="#FF0F00"/>
</svg>
