<svg width="24" height="24" viewBox="0 0 24 24" fill="none" xmlns="http://www.w3.org/2000/svg">
<path d="M22.9475 19.4122C23.9248 20.3899 23.9248 21.9697 22.9475 22.9475C22.46 23.435 21.82 23.6799 21.1796 23.6799C20.5396 23.6799 19.8997 23.435 19.4122 22.9475L11.8998 15.4347L4.38744 22.9475C3.89992 23.435 3.25997 23.6799 2.62002 23.6799C1.97961 23.6799 1.33965 23.435 0.852135 22.9475C-0.125191 21.9697 -0.125191 20.3899 0.852135 19.4122L8.36495 11.8998L0.852135 4.38744C-0.125191 3.40966 -0.125191 1.82992 0.852135 0.852135C1.82992 -0.125191 3.40966 -0.125191 4.38744 0.852135L11.8998 8.36495L19.4122 0.852135C20.3899 -0.125191 21.9697 -0.125191 22.9475 0.852135C23.9248 1.82992 23.9248 3.40966 22.9475 4.38744L15.4347 11.8998L22.9475 19.4122Z" fill="#FAFAFA"/>
</svg>
