<svg width="26" height="26" viewBox="0 0 26 26" fill="none" xmlns="http://www.w3.org/2000/svg">
<path d="M6.34574 21.2027C4.34848 21.0296 2.78125 19.3537 2.78125 17.3116V10.7384C2.78125 9.52003 3.34977 8.3714 4.31855 7.63249L9.63105 3.58058C11.0301 2.51351 12.9699 2.51351 14.3689 3.58058L14.7283 3.85468C13.7689 3.75999 12.7819 4.01968 11.9748 4.63526L5.65672 9.45417C5.32164 9.70972 5.125 10.107 5.125 10.5284V18.3662C5.125 19.4833 5.59402 20.4908 6.34574 21.2027Z" fill="#CEE1F2"/>
<path d="M17.3125 21.9991H6.6875C4.10281 21.9991 2 19.8962 2 17.3116V10.7385C2 9.28569 2.68965 7.89237 3.84477 7.01132L9.15727 2.9594C10.8311 1.6828 13.1689 1.6828 14.8427 2.9594L20.1552 7.01132C21.3104 7.89233 22 9.28565 22 10.7385V17.3116C22 19.8962 19.8972 21.9991 17.3125 21.9991ZM12 3.56347C11.3313 3.56347 10.6629 3.7762 10.1048 4.20175L4.79234 8.25366C4.02227 8.84104 3.5625 9.76991 3.5625 10.7385V17.3116C3.5625 19.0347 4.96438 20.4366 6.6875 20.4366H17.3125C19.0356 20.4366 20.4375 19.0347 20.4375 17.3116V10.7385C20.4375 9.76995 19.9777 8.84104 19.2077 8.2537L13.8952 4.20179C13.3373 3.77632 12.6686 3.56347 12 3.56347Z" fill="white"/>
<path d="M14.8125 17.5845H9.22656C7.93422 17.5845 6.88281 16.5331 6.88281 15.2407V12.311C6.88281 11.0187 7.93422 9.96729 9.22656 9.96729H10.3144C10.9799 9.96729 11.5865 10.2295 12.0361 10.6561C12.4843 10.2294 13.09 9.96729 13.7557 9.96729H14.8125C16.1048 9.96729 17.1562 11.0187 17.1562 12.311V15.2407C17.1562 16.5331 16.1048 17.5845 14.8125 17.5845ZM9.22656 11.5298C8.79578 11.5298 8.44531 11.8803 8.44531 12.311V15.2407C8.44531 15.6715 8.79578 16.022 9.22656 16.022H14.8125C15.2433 16.022 15.5938 15.6715 15.5938 15.2407V12.311C15.5938 11.8803 15.2433 11.5298 14.8125 11.5298H13.7557C13.2402 11.5298 12.8207 11.9508 12.8203 12.4684V12.4704V13.9126C12.8203 14.3441 12.4705 14.6939 12.0391 14.6939C11.6076 14.6939 11.2578 14.3441 11.2578 13.9126V12.4713C11.255 11.9521 10.832 11.5298 10.3144 11.5298H9.22656Z" fill="#4DC4E7"/>
</svg>
