<svg width="22" height="22" viewBox="0 0 22 22" fill="none" xmlns="http://www.w3.org/2000/svg">
<path d="M4.33301 9.33301V1.83301" stroke="black" stroke-width="2" stroke-miterlimit="10" stroke-linecap="square"/>
<path d="M4.33301 20.1665V17.6665" stroke="black" stroke-width="2" stroke-miterlimit="10" stroke-linecap="square"/>
<path d="M11 2.66634V1.83301" stroke="black" stroke-width="2" stroke-miterlimit="10" stroke-linecap="square"/>
<path d="M11 20.1662V10.9995" stroke="black" stroke-width="2" stroke-miterlimit="10" stroke-linecap="square"/>
<path d="M17.666 9.33301V1.83301" stroke="black" stroke-width="2" stroke-miterlimit="10" stroke-linecap="square"/>
<path d="M17.666 20.1665V17.6665" stroke="black" stroke-width="2" stroke-miterlimit="10" stroke-linecap="square"/>
<path d="M4.33301 17.6665C5.71372 17.6665 6.83301 16.5472 6.83301 15.1665C6.83301 13.7858 5.71372 12.6665 4.33301 12.6665C2.9523 12.6665 1.83301 13.7858 1.83301 15.1665C1.83301 16.5472 2.9523 17.6665 4.33301 17.6665Z" stroke="black" stroke-width="2" stroke-miterlimit="10" stroke-linecap="square"/>
<path d="M11 10.9995C12.3807 10.9995 13.5 9.88022 13.5 8.49951C13.5 7.1188 12.3807 5.99951 11 5.99951C9.61929 5.99951 8.5 7.1188 8.5 8.49951C8.5 9.88022 9.61929 10.9995 11 10.9995Z" stroke="black" stroke-width="2" stroke-miterlimit="10" stroke-linecap="square"/>
<path d="M17.666 17.6665C19.0467 17.6665 20.166 16.5472 20.166 15.1665C20.166 13.7858 19.0467 12.6665 17.666 12.6665C16.2853 12.6665 15.166 13.7858 15.166 15.1665C15.166 16.5472 16.2853 17.6665 17.666 17.6665Z" stroke="black" stroke-width="2" stroke-miterlimit="10" stroke-linecap="square"/>
</svg>
